<svg width="22px" height="20px" viewBox="0 0 22 20" version="1.1" xmlns="http://www.w3.org/2000/svg" xmlns:xlink="http://www.w3.org/1999/xlink">
    <!-- Generator: Sketch 51.3 (57544) - http://www.bohemiancoding.com/sketch -->
    <title>fafa-fill-heart-icon</title>
    <desc>Created with Sketch.</desc>
    <defs/>
    <g id="Symbols" stroke="none" stroke-width="1" fill="none" fill-rule="evenodd">
        <g id="Header/5" transform="translate(-1128.000000, -61.000000)" fill="#FFFFFF">
            <path d="M1139,80.7142857 C1138.7872,80.7142857 1138.60714,80.6406257 1138.45982,80.4933036 L1130.79911,73.1026786 C1130.71726,73.0372021 1130.60473,72.9308043 1130.4615,72.7834821 C1130.31827,72.63616 1130.09115,72.3681195 1129.78013,71.9793527 C1129.46912,71.5905859 1129.19085,71.1915943 1128.94531,70.7823661 C1128.69978,70.3731378 1128.48084,69.8779791 1128.2885,69.296875 C1128.09617,68.7157709 1128,68.1510444 1128,67.6026786 C1128,65.8020743 1128.51971,64.3943503 1129.55915,63.3794643 C1130.59859,62.3645783 1132.03496,61.8571429 1133.8683,61.8571429 C1134.37575,61.8571429 1134.89341,61.9451256 1135.42132,62.1210937 C1135.94922,62.2970619 1136.44029,62.5344107 1136.89453,62.8331473 C1137.34877,63.1318839 1137.73958,63.4122011 1138.06696,63.6741071 C1138.39435,63.9360132 1138.70536,64.2142842 1139,64.5089286 C1139.29464,64.2142842 1139.60565,63.9360132 1139.93304,63.6741071 C1140.26042,63.4122011 1140.65123,63.1318839 1141.10547,62.8331473 C1141.55971,62.5344107 1142.05078,62.2970619 1142.57868,62.1210937 C1143.10659,61.9451256 1143.62425,61.8571429 1144.1317,61.8571429 C1145.96504,61.8571429 1147.40141,62.3645783 1148.44085,63.3794643 C1149.48029,64.3943503 1150,65.8020743 1150,67.6026786 C1150,69.4114674 1149.06288,71.2529668 1147.18862,73.1272321 L1139.54018,80.4933036 C1139.39286,80.6406257 1139.2128,80.7142857 1139,80.7142857 Z" id="fafa-fill-heart-icon"/>
        </g>
    </g>
</svg>
