<?xml version="1.0" encoding="UTF-8"?>
<svg width="125px" height="110px" viewBox="0 0 125 110" version="1.1" xmlns="http://www.w3.org/2000/svg" xmlns:xlink="http://www.w3.org/1999/xlink">
    <!-- Generator: Sketch 51.3 (57544) - http://www.bohemiancoding.com/sketch -->
    <title>icon-free-international</title>
    <desc>Created with Sketch.</desc>
    <defs></defs>
    <g id="Symbols" stroke="none" stroke-width="1" fill="none" fill-rule="evenodd">
        <g id="Secure-icons/free-international">
            <g id="icon-free-international">
                <path d="M27.4800773,7.84360579 C8.29734572,25.4917188 68.9800773,53.5 18.4800773,71.5 C-32.0199227,89.5 32.9800773,112 70.4800773,109 C107.980077,106 127.980077,92 124.262393,58.3436058 C120.544708,24.6872116 82.7623926,7.84360579 82.7623926,7.84360579 C82.7623926,7.84360579 46.6628088,-9.80450724 27.4800773,7.84360579 Z" id="Path-3-Copy-2" fill-opacity="0.0874943388" fill="#FB4A26" fill-rule="nonzero"></path>
                <g transform="translate(34.000000, 27.000000)" stroke="#FB4A26" stroke-linecap="round" stroke-linejoin="round" stroke-width="1.5">
                    <circle id="Oval" cx="28" cy="28" r="28"></circle>
                    <path d="M0,28 L56,28" id="Shape"></path>
                    <path d="M28.5,6.21724894e-16 C36.3165012,7.6673881 40.7586024,17.6176948 41,28 C40.7586024,38.3823052 36.3165012,48.3326119 28.5,56 C20.6834988,48.3326119 16.2413976,38.3823052 16,28 C16.2413976,17.6176948 20.6834988,7.6673881 28.5,0 Z" id="Shape"></path>
                </g>
            </g>
        </g>
    </g>
</svg>
