<svg width="16" height="15" viewBox="0 0 16 15" fill="none" xmlns="http://www.w3.org/2000/svg">
<path d="M0 1C0 0.447715 0.447715 0 1 0H15C15.5523 0 16 0.447715 16 1V12C16 13.6569 14.6569 15 13 15H3C1.34315 15 0 13.6569 0 12V1Z" fill="#717171"/>
<path d="M0 0H4V1C4 2.10457 3.10457 3 2 3C0.895431 3 0 2.10457 0 1V0Z" fill="#B3B3B3"/>
<path d="M4 0H8V1C8 2.10457 7.10457 3 6 3C4.89543 3 4 2.10457 4 1V0Z" fill="#505050"/>
<path d="M8 0H12V1C12 2.10457 11.1046 3 10 3C8.89543 3 8 2.10457 8 1V0Z" fill="#B3B3B3"/>
<path d="M12 0H16V1C16 2.10457 15.1046 3 14 3C12.8954 3 12 2.10457 12 1V0Z" fill="#505050"/>
<rect x="3" y="9" width="4" height="4" fill="#C4C4C4"/>
<rect x="8" y="9" width="4" height="4" fill="#C4C4C4"/>
<rect x="3" y="4" width="4" height="4" fill="#C4C4C4"/>
</svg>
