<svg width="21px" height="21px" viewBox="0 0 21 21" version="1.1" xmlns="http://www.w3.org/2000/svg" xmlns:xlink="http://www.w3.org/1999/xlink">
    <!-- Generator: Sketch 51.3 (57544) - http://www.bohemiancoding.com/sketch -->
    <title>fafa-fill-search-icon</title>
    <desc>Created with Sketch.</desc>
    <defs/>
    <g id="Symbols" stroke="none" stroke-width="1" fill="none" fill-rule="evenodd">
        <g id="Header/5" transform="translate(-1084.000000, -61.000000)" fill="#333333">
            <path d="M1098.24176,69.7032967 C1098.24176,68.1785638 1097.69987,66.8743186 1096.61607,65.790522 C1095.53227,64.7067254 1094.22803,64.1648352 1092.7033,64.1648352 C1091.17856,64.1648352 1089.87432,64.7067254 1088.79052,65.790522 C1087.70673,66.8743186 1087.16484,68.1785638 1087.16484,69.7032967 C1087.16484,71.2280296 1087.70673,72.5322748 1088.79052,73.6160714 C1089.87432,74.6998681 1091.17856,75.2417582 1092.7033,75.2417582 C1094.22803,75.2417582 1095.53227,74.6998681 1096.61607,73.6160714 C1097.69987,72.5322748 1098.24176,71.2280296 1098.24176,69.7032967 Z M1104.57143,79.989011 C1104.57143,80.4175846 1104.41484,80.78846 1104.10165,81.1016484 C1103.78846,81.4148367 1103.41758,81.5714286 1102.98901,81.5714286 C1102.54395,81.5714286 1102.17308,81.4148367 1101.87637,81.1016484 L1097.63599,76.8736264 C1096.16071,77.8956095 1094.51649,78.4065934 1092.7033,78.4065934 C1091.52472,78.4065934 1090.39767,78.1778869 1089.32212,77.720467 C1088.24656,77.2630472 1087.31937,76.6449215 1086.54052,75.8660714 C1085.76167,75.0872214 1085.14355,74.1600329 1084.68613,73.084478 C1084.22871,72.0089232 1084,70.881874 1084,69.7032967 C1084,68.5247194 1084.22871,67.3976702 1084.68613,66.3221154 C1085.14355,65.2465606 1085.76167,64.319372 1086.54052,63.540522 C1087.31937,62.7616719 1088.24656,62.1435462 1089.32212,61.6861264 C1090.39767,61.2287065 1091.52472,61 1092.7033,61 C1093.88187,61 1095.00892,61.2287065 1096.08448,61.6861264 C1097.16003,62.1435462 1098.08722,62.7616719 1098.86607,63.540522 C1099.64492,64.319372 1100.26305,65.2465606 1100.72047,66.3221154 C1101.17789,67.3976702 1101.40659,68.5247194 1101.40659,69.7032967 C1101.40659,71.5164926 1100.89561,73.1607069 1099.87363,74.635989 L1104.11401,78.8763736 C1104.41896,79.1813202 1104.57143,79.5521956 1104.57143,79.989011 Z" id="fafa-fill-search-icon"/>
        </g>
    </g>
</svg>
