<svg width="19px" height="19px" viewBox="0 0 19 19" version="1.1" xmlns="http://www.w3.org/2000/svg" xmlns:xlink="http://www.w3.org/1999/xlink">
    <!-- Generator: Sketch 51.3 (57544) - http://www.bohemiancoding.com/sketch -->
    <title>new-style-cog-icon</title>
    <desc>Created with Sketch.</desc>
    <defs/>
    <g id="Shop-page" stroke="none" stroke-width="1" fill="none" fill-rule="evenodd">
        <g id="list-view" transform="translate(-1235.000000, -83.000000)" fill="#333333">
            <g id="Header">
                <path d="M1247.30952,92.2321429 C1247.30952,91.3826532 1247.009,90.6573923 1246.40795,90.0563384 C1245.80689,89.4552844 1245.08163,89.1547619 1244.23214,89.1547619 C1243.38265,89.1547619 1242.65739,89.4552844 1242.05634,90.0563384 C1241.45528,90.6573923 1241.15476,91.3826532 1241.15476,92.2321429 C1241.15476,93.0816325 1241.45528,93.8068934 1242.05634,94.4079474 C1242.65739,95.0090013 1243.38265,95.3095238 1244.23214,95.3095238 C1245.08163,95.3095238 1245.80689,95.0090013 1246.40795,94.4079474 C1247.009,93.8068934 1247.30952,93.0816325 1247.30952,92.2321429 Z M1253.46429,90.9218517 L1253.46429,93.590518 C1253.46429,93.6866867 1253.43223,93.7788469 1253.36812,93.8670015 C1253.30401,93.9551561 1253.22387,94.0072466 1253.1277,94.0232747 L1250.90381,94.3598633 C1250.75154,94.7926221 1250.59527,95.1572561 1250.43499,95.453776 C1250.71548,95.8544787 1251.14423,96.4074401 1251.72124,97.1126767 C1251.80138,97.2088453 1251.84145,97.3090195 1251.84145,97.4132022 C1251.84145,97.5173849 1251.80539,97.6095451 1251.73326,97.6896856 C1251.51688,97.9862056 1251.12019,98.418958 1250.54318,98.9879557 C1249.96617,99.5569535 1249.58951,99.8414481 1249.4132,99.8414481 C1249.31703,99.8414481 1249.21285,99.8053854 1249.10066,99.7332589 L1247.44176,98.4349888 C1247.08914,98.6193121 1246.7245,98.7715768 1246.34784,98.8917876 C1246.21962,99.9816988 1246.10342,100.726995 1245.99923,101.127697 C1245.94313,101.352091 1245.79888,101.464286 1245.56648,101.464286 L1242.89781,101.464286 C1242.78561,101.464286 1242.68744,101.430227 1242.60329,101.362107 C1242.51915,101.293988 1242.47307,101.207838 1242.46505,101.103655 L1242.12846,98.8917876 C1241.73578,98.7635627 1241.37515,98.615305 1241.04657,98.4470099 L1239.35161,99.7332589 C1239.27147,99.8053854 1239.17129,99.8414481 1239.05108,99.8414481 C1238.93889,99.8414481 1238.83871,99.7973715 1238.75056,99.7092169 C1237.74079,98.7956149 1237.07964,98.1224445 1236.76709,97.6896856 C1236.71099,97.6095451 1236.68294,97.5173849 1236.68294,97.4132022 C1236.68294,97.3170336 1236.715,97.2248733 1236.77911,97.1367187 C1236.89932,96.9684236 1237.10368,96.7019604 1237.39218,96.337321 C1237.68069,95.9726816 1237.89706,95.6901904 1238.04132,95.4898391 C1237.82494,95.0891365 1237.66065,94.6924468 1237.54846,94.2997582 L1235.34861,93.9751907 C1235.24443,93.9591626 1235.16028,93.9090755 1235.09617,93.8249279 C1235.03206,93.7407804 1235,93.6466167 1235,93.542434 L1235,90.8737677 C1235,90.777599 1235.03206,90.6854388 1235.09617,90.5972842 C1235.16028,90.5091296 1235.23641,90.4570391 1235.32457,90.441011 L1237.56048,90.1044224 C1237.67267,89.735776 1237.82895,89.3671351 1238.0293,88.9984887 C1237.70873,88.5416876 1237.27999,87.9887263 1236.74305,87.339588 C1236.66291,87.2434193 1236.62284,87.1472522 1236.62284,87.0510835 C1236.62284,86.970943 1236.6589,86.8787828 1236.73103,86.7746001 C1236.93939,86.4860942 1237.33408,86.0553453 1237.9151,85.4823405 C1238.49612,84.9093357 1238.87477,84.6228376 1239.05108,84.6228376 C1239.15527,84.6228376 1239.25945,84.6629073 1239.36363,84.7430478 L1241.02253,86.0292969 C1241.37515,85.8449737 1241.73978,85.6927089 1242.11644,85.5724981 C1242.24467,84.4825869 1242.36087,83.7372912 1242.46505,83.3365885 C1242.52115,83.1121951 1242.6654,83 1242.89781,83 L1245.56648,83 C1245.67867,83 1245.77684,83.0340592 1245.86099,83.1021787 C1245.94514,83.1702981 1245.99122,83.2564479 1245.99923,83.3606306 L1246.33582,85.5724981 C1246.72851,85.700723 1247.08914,85.8489807 1247.41771,86.0172759 L1249.1247,84.7310268 C1249.19682,84.6589003 1249.29299,84.6228376 1249.4132,84.6228376 C1249.51738,84.6228376 1249.61756,84.6629073 1249.71373,84.7430478 C1250.74754,85.6967201 1251.40869,86.3779044 1251.6972,86.7866211 C1251.75329,86.8507335 1251.78134,86.9388868 1251.78134,87.0510835 C1251.78134,87.1472522 1251.74929,87.2394124 1251.68517,87.327567 C1251.56496,87.4958621 1251.36061,87.7623253 1251.0721,88.1269648 C1250.7836,88.4916042 1250.56722,88.7740953 1250.42297,88.9744466 C1250.63133,89.3751493 1250.79562,89.767832 1250.91583,90.1525065 L1253.11568,90.4890951 C1253.21986,90.5051232 1253.30401,90.5552102 1253.36812,90.6393578 C1253.43223,90.7235054 1253.46429,90.8176691 1253.46429,90.9218517 Z" id="new-style-cog-icon"/>
            </g>
        </g>
    </g>
</svg>
