<svg width="23px" height="20px" viewBox="0 0 23 20" version="1.1" xmlns="http://www.w3.org/2000/svg" xmlns:xlink="http://www.w3.org/1999/xlink">
    <!-- Generator: Sketch 51.3 (57544) - http://www.bohemiancoding.com/sketch -->
    <title>fafa-fill-cart-icon</title>
    <desc>Created with Sketch.</desc>
    <defs/>
    <g id="Symbols" stroke="none" stroke-width="1" fill="none" fill-rule="evenodd">
        <g id="Header/5" transform="translate(-1169.000000, -62.000000)" fill="#333333">
            <path d="M1177.70779,79.487013 C1177.70779,79.9548184 1177.53687,80.3596439 1177.19501,80.7015016 C1176.85315,81.0433594 1176.44832,81.2142857 1175.98052,81.2142857 C1175.51271,81.2142857 1175.10789,81.0433594 1174.76603,80.7015016 C1174.42417,80.3596439 1174.25325,79.9548184 1174.25325,79.487013 C1174.25325,79.0192076 1174.42417,78.6143821 1174.76603,78.2725244 C1175.10789,77.9306666 1175.51271,77.7597403 1175.98052,77.7597403 C1176.44832,77.7597403 1176.85315,77.9306666 1177.19501,78.2725244 C1177.53687,78.6143821 1177.70779,79.0192076 1177.70779,79.487013 Z M1189.7987,79.487013 C1189.7987,79.9548184 1189.62777,80.3596439 1189.28592,80.7015016 C1188.94406,81.0433594 1188.53923,81.2142857 1188.07143,81.2142857 C1187.60362,81.2142857 1187.1988,81.0433594 1186.85694,80.7015016 C1186.51508,80.3596439 1186.34416,79.9548184 1186.34416,79.487013 C1186.34416,79.0192076 1186.51508,78.6143821 1186.85694,78.2725244 C1187.1988,77.9306666 1187.60362,77.7597403 1188.07143,77.7597403 C1188.53923,77.7597403 1188.94406,77.9306666 1189.28592,78.2725244 C1189.62777,78.6143821 1189.7987,79.0192076 1189.7987,79.487013 Z M1191.52597,64.8051948 L1191.52597,71.7142857 C1191.52597,71.9301959 1191.45176,72.1213635 1191.30332,72.2877942 C1191.15488,72.454225 1190.97271,72.5509333 1190.7568,72.5779221 L1176.66873,74.2242289 C1176.78568,74.7640043 1176.84416,75.0788686 1176.84416,75.1688312 C1176.84416,75.3127713 1176.7362,75.6006472 1176.52029,76.0324675 L1188.93506,76.0324675 C1189.16897,76.0324675 1189.37138,76.1179307 1189.54231,76.2888596 C1189.71324,76.4597885 1189.7987,76.6622012 1189.7987,76.8961039 C1189.7987,77.1300066 1189.71324,77.3324193 1189.54231,77.5033482 C1189.37138,77.6742771 1189.16897,77.7597403 1188.93506,77.7597403 L1175.11688,77.7597403 C1174.88298,77.7597403 1174.68057,77.6742771 1174.50964,77.5033482 C1174.33871,77.3324193 1174.25325,77.1300066 1174.25325,76.8961039 C1174.25325,76.7971451 1174.28923,76.6554561 1174.3612,76.4710329 C1174.43317,76.2866096 1174.50514,76.1246794 1174.57711,75.9852374 C1174.64908,75.8457954 1174.74579,75.665873 1174.86724,75.4454647 C1174.98869,75.2250564 1175.05841,75.0923636 1175.0764,75.0473823 L1172.68791,63.9415584 L1169.93506,63.9415584 C1169.70116,63.9415584 1169.49875,63.8560953 1169.32782,63.6851664 C1169.15689,63.5142375 1169.07143,63.3118248 1169.07143,63.0779221 C1169.07143,62.8440194 1169.15689,62.6416066 1169.32782,62.4706778 C1169.49875,62.2997489 1169.70116,62.2142857 1169.93506,62.2142857 L1173.38961,62.2142857 C1173.53355,62.2142857 1173.66175,62.2435231 1173.7742,62.3019988 C1173.88665,62.3604745 1173.97436,62.4301944 1174.03734,62.5111607 C1174.10031,62.592127 1174.15879,62.7023295 1174.21276,62.8417715 C1174.26674,62.9812135 1174.30273,63.0981631 1174.32072,63.1926238 C1174.33871,63.2870845 1174.36345,63.4197773 1174.39494,63.5907062 C1174.42642,63.7616351 1174.44667,63.8785846 1174.45566,63.9415584 L1190.66234,63.9415584 C1190.89624,63.9415584 1191.09865,64.0270216 1191.26958,64.1979505 C1191.44051,64.3688794 1191.52597,64.5712921 1191.52597,64.8051948 Z" id="fafa-fill-cart-icon"/>
        </g>
    </g>
</svg>
