<svg width="20px" height="18px" viewBox="0 0 20 18" version="1.1" xmlns="http://www.w3.org/2000/svg" xmlns:xlink="http://www.w3.org/1999/xlink">
    <!-- Generator: Sketch 51.3 (57544) - http://www.bohemiancoding.com/sketch -->
    <title>new-style-cart-icon</title>
    <desc>Created with Sketch.</desc>
    <defs/>
    <g id="Shop-page" stroke="none" stroke-width="1" fill="none" fill-rule="evenodd">
        <g id="list-view" transform="translate(-1176.000000, -83.000000)">
            <g id="Header">
                <g id="new-style-cart-icon" transform="translate(1176.000000, 84.000000)">
                    <path d="M6,4 L18.8017873,4 C18.8617789,4 18.9216488,4.00539847 18.9806727,4.01613009 C19.5240491,4.11492579 19.8844529,4.63550909 19.7856572,5.17888544 L18,15 C18,16.1045695 17.1045695,17 16,17 L4,17 C2.8954305,17 2,16.1045695 2,15 L0.214342807,5.17888544 C0.203611183,5.11986151 0.198212717,5.0599916 0.198212717,5 C0.198212717,4.44771525 0.645927967,4 1.19821272,4 L6,4 Z M7,8 C7.55228475,8 8,7.55228475 8,7 C8,6.44771525 7.55228475,6 7,6 C6.44771525,6 6,6.44771525 6,7 C6,7.55228475 6.44771525,8 7,8 Z M13,8 C13.5522847,8 14,7.55228475 14,7 C14,6.44771525 13.5522847,6 13,6 C12.4477153,6 12,6.44771525 12,7 C12,7.55228475 12.4477153,8 13,8 Z" id="Combined-Shape" fill="#1E1E1E"/>
                    <path d="M13,0 C13,2.209139 11.6568542,4 10,4 C8.34314575,4 7,2.209139 7,0" id="Shape" stroke="#1E1E1E" stroke-linecap="round" stroke-linejoin="round" transform="translate(10.000000, 2.000000) scale(1, -1) translate(-10.000000, -2.000000) "/>
                </g>
            </g>
        </g>
    </g>
</svg>
