<svg width="19px" height="21px" viewBox="0 0 19 21" version="1.1" xmlns="http://www.w3.org/2000/svg" xmlns:xlink="http://www.w3.org/1999/xlink">
    <!-- Generator: Sketch 51.3 (57544) - http://www.bohemiancoding.com/sketch -->
    <title>new-style-user-icon</title>
    <desc>Created with Sketch.</desc>
    <defs/>
    <g id="Shop-page" stroke="none" stroke-width="1" fill="none" fill-rule="evenodd">
        <g id="list-view" transform="translate(-1117.000000, -82.000000)" fill="#1E1E1E" fill-rule="nonzero">
            <g id="Header">
                <path d="M1120,94 L1133,94 C1134.65685,94 1136,95.3431458 1136,97 L1136,100 C1136,101.656854 1134.65685,103 1133,103 L1120,103 C1118.34315,103 1117,101.656854 1117,100 L1117,97 C1117,95.3431458 1118.34315,94 1120,94 Z M1126.5,91 C1124.01472,91 1122,88.9852814 1122,86.5 C1122,84.0147186 1124.01472,82 1126.5,82 C1128.98528,82 1131,84.0147186 1131,86.5 C1131,88.9852814 1128.98528,91 1126.5,91 Z" id="new-style-user-icon"/>
            </g>
        </g>
    </g>
</svg>
