<svg width="17px" height="20px" viewBox="0 0 17 20" version="1.1" xmlns="http://www.w3.org/2000/svg" xmlns:xlink="http://www.w3.org/1999/xlink">
    <!-- Generator: Sketch 51.3 (57544) - http://www.bohemiancoding.com/sketch -->
    <title>fafa-fill-user-icon</title>
    <desc>Created with Sketch.</desc>
    <defs/>
    <g id="Symbols" stroke="none" stroke-width="1" fill="none" fill-rule="evenodd">
        <g id="Header/5" transform="translate(-1216.000000, -62.000000)" fill="#333333">
            <path d="M1232.2381,78.0077195 C1232.2381,78.9065955 1231.98039,79.6776382 1231.46498,80.3208705 C1230.94957,80.9641029 1230.32903,81.2857143 1229.60333,81.2857143 L1219.03953,81.2857143 C1218.31383,81.2857143 1217.69328,80.9641029 1217.17787,80.3208705 C1216.66246,79.6776382 1216.40476,78.9065955 1216.40476,78.0077195 C1216.40476,77.3067611 1216.43981,76.6449839 1216.50991,76.0223679 C1216.58,75.399752 1216.70988,74.7730221 1216.89955,74.1421596 C1217.08922,73.5112971 1217.33043,72.9711549 1217.62319,72.5217169 C1217.91594,72.0722789 1218.30352,71.7053121 1218.78595,71.4208054 C1219.26837,71.1362988 1219.82294,70.9940476 1220.44968,70.9940476 C1221.52998,72.0496085 1222.82055,72.577381 1224.32143,72.577381 C1225.8223,72.577381 1227.11287,72.0496085 1228.19317,70.9940476 C1228.81991,70.9940476 1229.37449,71.1362988 1229.85691,71.4208054 C1230.33933,71.7053121 1230.72692,72.0722789 1231.01967,72.5217169 C1231.31242,72.9711549 1231.55363,73.5112971 1231.7433,74.1421596 C1231.93297,74.7730221 1232.06286,75.399752 1232.13295,76.0223679 C1232.20305,76.6449839 1232.2381,77.3067611 1232.2381,78.0077195 Z M1229.07143,67.0357143 C1229.07143,68.3469188 1228.60757,69.4663737 1227.67983,70.3941127 C1226.75209,71.3218517 1225.63263,71.7857143 1224.32143,71.7857143 C1223.01022,71.7857143 1221.89077,71.3218517 1220.96303,70.3941127 C1220.03529,69.4663737 1219.57143,68.3469188 1219.57143,67.0357143 C1219.57143,65.7245098 1220.03529,64.6050549 1220.96303,63.6773158 C1221.89077,62.7495768 1223.01022,62.2857143 1224.32143,62.2857143 C1225.63263,62.2857143 1226.75209,62.7495768 1227.67983,63.6773158 C1228.60757,64.6050549 1229.07143,65.7245098 1229.07143,67.0357143 Z" id="fafa-fill-user-icon"/>
        </g>
    </g>
</svg>
