<svg width="17px" height="18px" viewBox="0 0 17 18" version="1.1" xmlns="http://www.w3.org/2000/svg" xmlns:xlink="http://www.w3.org/1999/xlink">
    <!-- Generator: Sketch 51.3 (57544) - http://www.bohemiancoding.com/sketch -->
    <title>accessary</title>
    <desc>Created with Sketch.</desc>
    <defs/>
    <g id="Symbols" stroke="none" stroke-width="1" fill="none" fill-rule="evenodd" stroke-linecap="round" stroke-linejoin="round">
        <g id="product/3-colomn/hover" transform="translate(-206.000000, -243.000000)" stroke="#FFFFFF" stroke-width="1.5">
            <g id="3" transform="translate(15.000000, 17.000000)">
                <g id="Group-4" transform="translate(122.000000, 222.000000)">
                    <g id="Search" transform="translate(64.000000, 0.000000)">
                        <g id="accessary" transform="translate(6.000000, 5.000000)">
                            <path d="M11,6 L4,2" id="Shape"/>
                            <path d="M15,11.2006564 L15,4.79934361 C14.9993899,4.22818776 14.6818067,3.70063749 14.1666667,3.41505972 L8.33333333,0.214403324 C7.81766487,-0.0714677746 7.18233513,-0.0714677746 6.66666667,0.214403324 L0.833333333,3.41505972 C0.318193267,3.70063749 0.00061012395,4.22818776 0,4.79934361 L0,11.2006564 C0.00061012395,11.7718122 0.318193267,12.2993625 0.833333333,12.5849403 L6.66666667,15.7855967 C7.18233513,16.0714678 7.81766487,16.0714678 8.33333333,15.7855967 L14.1666667,12.5849403 C14.6818067,12.2993625 14.9993899,11.7718122 15,11.2006564 Z" id="Shape"/>
                            <polyline id="Shape" points="0 4 7.5 8 15 4"/>
                            <path d="M8,16 L8,8" id="Shape"/>
                        </g>
                    </g>
                </g>
            </g>
        </g>
    </g>
</svg>
